<?xml version="1.0" encoding="utf-8"?>
<!-- Generator: Adobe Illustrator 22.1.0, SVG Export Plug-In . SVG Version: 6.00 Build 0)  -->
<!DOCTYPE svg PUBLIC "-//W3C//DTD SVG 1.1//EN" "http://www.w3.org/Graphics/SVG/1.1/DTD/svg11.dtd">
<svg version="1.1" id="Layer_1" xmlns="http://www.w3.org/2000/svg" xmlns:xlink="http://www.w3.org/1999/xlink" x="0px" y="0px"
	 viewBox="0 0 1066 1068" style="enable-background:new 0 0 1066 1068;" xml:space="preserve">
<style type="text/css">
	.st0{fill:#FFFFFF;}
</style>
<path class="st0" d="M532,124c113.3,0,209.7,40,289,120s119,176.7,119,290s-39.7,210-119,290S645.3,944,532,944
	c-92,0-176-29.3-252-88l70-76c54.7,40,115.3,60,182,60c84,0,156-30,216-90s90-132,90-216c0-85.3-30-158-90-218s-132-90-216-90
	c-82.7,0-153.7,28.7-213,86s-90.3,127.3-93,210h142L184,728L0,522h124c2.7-110.7,43.7-204.7,123-282S421.3,124,532,124L532,124"/>
</svg>
