<?xml version="1.0" encoding="UTF-8"?>
<svg width="482px" height="654px" viewBox="0 0 482 654" version="1.1" xmlns="http://www.w3.org/2000/svg" xmlns:xlink="http://www.w3.org/1999/xlink">
    <!-- Generator: Sketch 43.1 (39012) - http://www.bohemiancoding.com/sketch -->
    <title>Group 2</title>
    <desc>Created with Sketch.</desc>
    <defs></defs>
    <g id="Page-1" stroke="none" stroke-width="1" fill="none" fill-rule="evenodd">
        <g id="Artboard-Copy" transform="translate(-711.000000, -1842.000000)">
            <g id="Group-2" transform="translate(711.000000, 1842.000000)">
                <path d="M266.929426,371.722911 L111.721802,216.550994 C87.3155684,192.157338 75.122418,162.767194 75.122418,128.384186 C75.122418,93.9939307 87.3155684,64.6128449 111.721802,40.2119418 C136.117162,15.8237202 165.513726,3.62236288 199.907869,3.62236288 C234.004839,3.62236288 263.401403,15.6769778 288.093937,39.775338 C312.492922,64.1708061 324.689696,93.5573269 324.689696,127.942147 C324.689696,152.337615 318.222561,174.526512 305.291914,194.505216 L341.887674,194.505216 L341.887674,219.634396 L278.832651,219.634396 L270.015313,198.476319 C289.414907,179.372634 299.118328,156.011609 299.118328,128.384186 C299.118328,100.760385 289.561681,77.2417479 270.455636,57.8482022 C263.988501,51.675964 257.006749,46.3841801 249.514005,41.9782853 C242.015824,37.5705789 234.080944,34.260723 225.702117,32.055964 C217.325102,29.8566399 208.725208,28.7515429 199.907869,28.7515429 C171.685501,28.7515429 148.16535,38.4492216 129.35829,57.8482022 C109.955072,77.5406676 100.257087,101.050247 100.257087,128.384186 C100.257087,155.71269 109.955072,179.229515 129.35829,198.914734 L284.565914,354.092086 L266.929426,371.722911 Z M130.681072,273.858424 C99.8149519,289.728341 75.2673805,312.582108 57.043794,342.410668 C38.8147714,372.24285 29.7075083,404.643931 29.7075083,439.612097 C29.7075083,473.411759 38.0845233,504.6389 54.8403654,533.293521 C71.5962075,561.94633 94.3045684,584.649731 122.965448,601.401914 C151.624516,618.150474 182.856666,626.525659 216.663711,626.525659 C248.995764,626.525659 279.122576,618.741066 307.05502,603.166446 C334.978403,587.580956 357.465696,566.355848 374.516899,539.463947 C391.562666,512.572047 401.119313,483.113061 403.175967,451.076119 L351.587471,451.076119 L351.587471,425.948751 L479.016674,425.948751 L479.016674,451.076119 L428.312448,451.076119 C426.250358,487.816064 415.591997,521.532391 396.346426,552.245028 C377.086358,582.95223 351.587471,607.200956 319.842516,624.98577 C288.093937,642.763338 253.701606,651.656651 216.663711,651.656651 C187.850621,651.656651 160.367561,646.069571 134.207283,634.902657 C108.039756,623.732119 85.483606,608.673814 66.5243353,589.716873 C47.5632526,570.759931 32.4980346,548.205083 21.3286812,522.050518 C10.1520797,495.894141 4.5728391,468.417083 4.5728391,439.612097 C4.5728391,401.413787 14.2744481,365.851404 33.6758541,332.930385 C53.0754481,300.018424 79.2357263,274.15372 112.160313,255.343521 L130.681072,273.858424 Z" id="Fill-1" fill="#D3D3D3"></path>
                <path d="M266.929426,371.722911 L111.721802,216.550994 C87.3155684,192.157338 75.122418,162.767194 75.122418,128.384186 C75.122418,93.9939307 87.3155684,64.6128449 111.721802,40.2119418 C136.117162,15.8237202 165.513726,3.62236288 199.907869,3.62236288 C234.004839,3.62236288 263.401403,15.6769778 288.093937,39.775338 C312.492922,64.1708061 324.689696,93.5573269 324.689696,127.942147 C324.689696,152.337615 318.222561,174.526512 305.291914,194.505216 L341.887674,194.505216 L341.887674,219.634396 L278.832651,219.634396 L270.015313,198.476319 C289.414907,179.372634 299.118328,156.011609 299.118328,128.384186 C299.118328,100.760385 289.561681,77.2417479 270.455636,57.8482022 C263.988501,51.675964 257.006749,46.3841801 249.514005,41.9782853 C242.015824,37.5705789 234.080944,34.260723 225.702117,32.055964 C217.325102,29.8566399 208.725208,28.7515429 199.907869,28.7515429 C171.685501,28.7515429 148.16535,38.4492216 129.35829,57.8482022 C109.955072,77.5406676 100.257087,101.050247 100.257087,128.384186 C100.257087,155.71269 109.955072,179.229515 129.35829,198.914734 L284.565914,354.092086 L266.929426,371.722911 Z M130.681072,273.858424 C99.8149519,289.728341 75.2673805,312.582108 57.043794,342.410668 C38.8147714,372.24285 29.7075083,404.643931 29.7075083,439.612097 C29.7075083,473.411759 38.0845233,504.6389 54.8403654,533.293521 C71.5962075,561.94633 94.3045684,584.649731 122.965448,601.401914 C151.624516,618.150474 182.856666,626.525659 216.663711,626.525659 C248.995764,626.525659 279.122576,618.741066 307.05502,603.166446 C334.978403,587.580956 357.465696,566.355848 374.516899,539.463947 C391.562666,512.572047 401.119313,483.113061 403.175967,451.076119 L351.587471,451.076119 L351.587471,425.948751 L479.016674,425.948751 L479.016674,451.076119 L428.312448,451.076119 C426.250358,487.816064 415.591997,521.532391 396.346426,552.245028 C377.086358,582.95223 351.587471,607.200956 319.842516,624.98577 C288.093937,642.763338 253.701606,651.656651 216.663711,651.656651 C187.850621,651.656651 160.367561,646.069571 134.207283,634.902657 C108.039756,623.732119 85.483606,608.673814 66.5243353,589.716873 C47.5632526,570.759931 32.4980346,548.205083 21.3286812,522.050518 C10.1520797,495.894141 4.5728391,468.417083 4.5728391,439.612097 C4.5728391,401.413787 14.2744481,365.851404 33.6758541,332.930385 C53.0754481,300.018424 79.2357263,274.15372 112.160313,255.343521 L130.681072,273.858424 Z" id="Stroke-3" stroke="#40B2FF" stroke-width="0.5"></path>
                <g id="Group-8" transform="translate(144.962406, 3.623269)">
                    <path d="M0.453007519,0 L107.362782,0" id="Fill-5" fill="#FFFFFF"></path>
                    <path d="M0.453007519,0 L107.362782,0" id="Stroke-7" stroke="#40B2FF"></path>
                </g>
                <polygon id="Fill-9" fill="#FFFFFF" points="196.152256 6.34072022 201.588346 6.34072022 201.588346 0.905817175 196.152256 0.905817175"></polygon>
                <path d="M195.246241,7.2465374 L202.494361,7.2465374 L202.494361,0 L195.246241,0 L195.246241,7.2465374 Z M197.058271,5.43490305 L200.682331,5.43490305 L200.682331,1.81163435 L197.058271,1.81163435 L197.058271,5.43490305 Z" id="Fill-11" fill="#40B2FF"></path>
                <path d="M146.321429,6.34072022 L146.321429,6.34072022 C144.819256,6.34072022 143.603383,5.12511357 143.603383,3.6232687 C143.603383,2.12142382 144.819256,0.905817175 146.321429,0.905817175 C147.823602,0.905817175 149.039474,2.12142382 149.039474,3.6232687 C149.039474,5.12511357 147.823602,6.34072022 146.321429,6.34072022" id="Fill-12" fill="#40B2FF"></path>
                <path d="M252.325188,6.34072022 L252.325188,6.34072022 C250.824827,6.34072022 249.607143,5.12511357 249.607143,3.6232687 C249.607143,2.12142382 250.824827,0.905817175 252.325188,0.905817175 C253.825549,0.905817175 255.043233,2.12142382 255.043233,3.6232687 C255.043233,5.12511357 253.825549,6.34072022 252.325188,6.34072022" id="Fill-13" fill="#40B2FF"></path>
                <g id="Group-16" transform="translate(159.458647, 28.986150)">
                    <path d="M0.453007519,0 L78.3703008,0" id="Fill-14" fill="#FFFFFF"></path>
                    <path d="M0.453007519,0 L78.3703008,0" id="Stroke-15" stroke="#40B2FF"></path>
                </g>
                <polygon id="Fill-17" fill="#FFFFFF" points="196.152256 31.7036011 201.588346 31.7036011 201.588346 26.2686981 196.152256 26.2686981"></polygon>
                <path d="M195.246241,32.6094183 L202.494361,32.6094183 L202.494361,25.3628809 L195.246241,25.3628809 L195.246241,32.6094183 Z M197.058271,30.7977839 L200.682331,30.7977839 L200.682331,27.1745152 L197.058271,27.1745152 L197.058271,30.7977839 Z" id="Fill-18" fill="#40B2FF"></path>
                <path d="M160.817669,31.7036011 L160.817669,31.7036011 C159.315496,31.7036011 158.099624,30.4879945 158.099624,28.9861496 C158.099624,27.4843047 159.315496,26.2686981 160.817669,26.2686981 C162.319842,26.2686981 163.535714,27.4843047 163.535714,28.9861496 C163.535714,30.4879945 162.319842,31.7036011 160.817669,31.7036011" id="Fill-19" fill="#40B2FF"></path>
                <path d="M237.828947,31.7036011 L237.828947,31.7036011 C236.326774,31.7036011 235.110902,30.4879945 235.110902,28.9861496 C235.110902,27.4843047 236.326774,26.2686981 237.828947,26.2686981 C239.33112,26.2686981 240.546992,27.4843047 240.546992,28.9861496 C240.546992,30.4879945 239.33112,31.7036011 237.828947,31.7036011" id="Fill-20" fill="#40B2FF"></path>
                <g id="Group-23" transform="translate(104.285714, 650.376731)">
                    <path d="M226.862782,0 L0.359022556,0" id="Fill-21" fill="#FFFFFF"></path>
                    <path d="M226.862782,0 L0.359022556,0" id="Stroke-22" stroke="#40B2FF"></path>
                </g>
                <polygon id="Fill-24" fill="#FFFFFF" points="215.178571 653.094183 220.614662 653.094183 220.614662 647.65928 215.178571 647.65928"></polygon>
                <path d="M214.272556,654 L221.520677,654 L221.520677,646.753463 L214.272556,646.753463 L214.272556,654 Z M216.084586,652.188366 L219.708647,652.188366 L219.708647,648.565097 L216.084586,648.565097 L216.084586,652.188366 Z" id="Fill-25" fill="#40B2FF"></path>
                <path d="M330.242481,647.65928 L330.242481,647.65928 C331.742842,647.65928 332.960526,648.876698 332.960526,650.376731 C332.960526,651.876765 331.742842,653.094183 330.242481,653.094183 C328.74212,653.094183 327.524436,651.876765 327.524436,650.376731 C327.524436,648.876698 328.74212,647.65928 330.242481,647.65928" id="Fill-26" fill="#40B2FF"></path>
                <path d="M104.644737,647.65928 L104.644737,647.65928 C106.14691,647.65928 107.362782,648.876698 107.362782,650.376731 C107.362782,651.876765 106.14691,653.094183 104.644737,653.094183 C103.142564,653.094183 101.926692,651.876765 101.926692,650.376731 C101.926692,648.876698 103.142564,647.65928 104.644737,647.65928" id="Fill-27" fill="#40B2FF"></path>
                <g id="Group-30" transform="translate(138.714286, 626.825485)">
                    <path d="M158.005639,0 L0.359022556,0" id="Fill-28" fill="#FFFFFF"></path>
                    <path d="M158.005639,0 L0.359022556,0" id="Stroke-29" stroke="#40B2FF"></path>
                </g>
                <polygon id="Fill-31" fill="#FFFFFF" points="215.178571 629.542936 220.614662 629.542936 220.614662 624.108033 215.178571 624.108033"></polygon>
                <path d="M214.272556,630.448753 L221.520677,630.448753 L221.520677,623.202216 L214.272556,623.202216 L214.272556,630.448753 Z M216.084586,628.637119 L219.708647,628.637119 L219.708647,625.01385 L216.084586,625.01385 L216.084586,628.637119 Z" id="Fill-32" fill="#40B2FF"></path>
                <path d="M295.81391,624.108033 L295.81391,624.108033 C297.314271,624.108033 298.531955,625.325452 298.531955,626.825485 C298.531955,628.325518 297.314271,629.542936 295.81391,629.542936 C294.313549,629.542936 293.095865,628.325518 293.095865,626.825485 C293.095865,625.325452 294.313549,624.108033 295.81391,624.108033" id="Fill-33" fill="#40B2FF"></path>
                <path d="M139.073308,624.108033 L139.073308,624.108033 C140.575481,624.108033 141.791353,625.325452 141.791353,626.825485 C141.791353,628.325518 140.575481,629.542936 139.073308,629.542936 C137.571135,629.542936 136.355263,628.325518 136.355263,626.825485 C136.355263,625.325452 137.571135,624.108033 139.073308,624.108033" id="Fill-34" fill="#40B2FF"></path>
                <g id="Group-37" transform="translate(74.293233, 71.653740)">
                    <path d="M0,107.245152 L0,0.358725762" id="Fill-35" fill="#FFFFFF"></path>
                    <path d="M0,107.245152 L0,0.358725762" id="Stroke-36" stroke="#40B2FF"></path>
                </g>
                <polygon id="Fill-38" fill="#FFFFFF" points="71.575188 128.17313 77.0112782 128.17313 77.0112782 122.738227 71.575188 122.738227"></polygon>
                <path d="M70.6691729,129.078947 L77.9172932,129.078947 L77.9172932,121.83241 L70.6691729,121.83241 L70.6691729,129.078947 Z M72.481203,127.267313 L76.1052632,127.267313 L76.1052632,123.644044 L72.481203,123.644044 L72.481203,127.267313 Z" id="Fill-39" fill="#40B2FF"></path>
                <path d="M77.0112782,177.993075 L77.0112782,177.993075 C77.0112782,179.49492 75.795406,180.710526 74.2932331,180.710526 C72.7910602,180.710526 71.575188,179.49492 71.575188,177.993075 C71.575188,176.49123 72.7910602,175.275623 74.2932331,175.275623 C75.795406,175.275623 77.0112782,176.49123 77.0112782,177.993075" id="Fill-40" fill="#40B2FF"></path>
                <path d="M77.0112782,72.0124654 L77.0112782,72.0124654 C77.0112782,73.5143102 75.795406,74.7299169 74.2932331,74.7299169 C72.7910602,74.7299169 71.575188,73.5143102 71.575188,72.0124654 C71.575188,70.5106205 72.7910602,69.2950139 74.2932331,69.2950139 C75.795406,69.2950139 77.0112782,70.5106205 77.0112782,72.0124654" id="Fill-41" fill="#40B2FF"></path>
                <g id="Group-44" transform="translate(99.661654, 86.146814)">
                    <path d="M0,78.2590028 L0,0.358725762" id="Fill-42" fill="#FFFFFF"></path>
                    <path d="M0,78.2590028 L0,0.358725762" id="Stroke-43" stroke="#40B2FF"></path>
                </g>
                <polygon id="Fill-45" fill="#FFFFFF" points="96.943609 128.17313 102.379699 128.17313 102.379699 122.738227 96.943609 122.738227"></polygon>
                <path d="M96.037594,129.078947 L103.285714,129.078947 L103.285714,121.83241 L96.037594,121.83241 L96.037594,129.078947 Z M97.8496241,127.267313 L101.473684,127.267313 L101.473684,123.644044 L97.8496241,123.644044 L97.8496241,127.267313 Z" id="Fill-46" fill="#40B2FF"></path>
                <path d="M102.379699,163.5 L102.379699,163.5 C102.379699,165.001845 101.163827,166.217452 99.6616541,166.217452 C98.1594812,166.217452 96.943609,165.001845 96.943609,163.5 C96.943609,161.998155 98.1594812,160.782548 99.6616541,160.782548 C101.163827,160.782548 102.379699,161.998155 102.379699,163.5" id="Fill-47" fill="#40B2FF"></path>
                <path d="M102.379699,86.5055402 L102.379699,86.5055402 C102.379699,88.007385 101.163827,89.2229917 99.6616541,89.2229917 C98.1594812,89.2229917 96.943609,88.007385 96.943609,86.5055402 C96.943609,85.0036953 98.1594812,83.7880886 99.6616541,83.7880886 C101.163827,83.7880886 102.379699,85.0036953 102.379699,86.5055402" id="Fill-48" fill="#40B2FF"></path>
                <g id="Group-51" transform="translate(3.624060, 350.645429)">
                    <path d="M0,206.885042 L0,0.358725762" id="Fill-49" fill="#FFFFFF"></path>
                    <path d="M0,206.885042 L0,0.358725762" id="Stroke-50" stroke="#40B2FF"></path>
                </g>
                <polygon id="Fill-52" fill="#FFFFFF" points="0.906015038 447.020776 6.34210526 447.020776 6.34210526 441.585873 0.906015038 441.585873"></polygon>
                <path d="M0,447.926593 L7.2481203,447.926593 L7.2481203,440.680055 L0,440.680055 L0,447.926593 Z M1.81203008,446.114958 L5.43609023,446.114958 L5.43609023,442.49169 L1.81203008,442.49169 L1.81203008,446.114958 Z" id="Fill-53" fill="#40B2FF"></path>
                <path d="M6.34210526,556.624654 L6.34210526,556.624654 C6.34210526,558.124687 5.12623308,559.342105 3.62406015,559.342105 C2.12188722,559.342105 0.906015038,558.124687 0.906015038,556.624654 C0.906015038,555.12462 2.12188722,553.907202 3.62406015,553.907202 C5.12623308,553.907202 6.34210526,555.12462 6.34210526,556.624654" id="Fill-54" fill="#40B2FF"></path>
                <path d="M6.34210526,351.004155 L6.34210526,351.004155 C6.34210526,352.504188 5.12623308,353.721607 3.62406015,353.721607 C2.12188722,353.721607 0.906015038,352.504188 0.906015038,351.004155 C0.906015038,349.504122 2.12188722,348.286704 3.62406015,348.286704 C5.12623308,348.286704 6.34210526,349.504122 6.34210526,351.004155" id="Fill-55" fill="#40B2FF"></path>
                <g id="Group-58" transform="translate(28.992481, 365.138504)">
                    <path d="M0,177.898892 L0,0.358725762" id="Fill-56" fill="#FFFFFF"></path>
                    <path d="M0,177.898892 L0,0.358725762" id="Stroke-57" stroke="#40B2FF"></path>
                </g>
                <polygon id="Fill-59" fill="#FFFFFF" points="26.2744361 447.020776 31.7105263 447.020776 31.7105263 441.585873 26.2744361 441.585873"></polygon>
                <path d="M25.3684211,447.926593 L32.6165414,447.926593 L32.6165414,440.680055 L25.3684211,440.680055 L25.3684211,447.926593 Z M27.1804511,446.114958 L30.8045113,446.114958 L30.8045113,442.49169 L27.1804511,442.49169 L27.1804511,446.114958 Z" id="Fill-60" fill="#40B2FF"></path>
                <path d="M31.7105263,542.131579 L31.7105263,542.131579 C31.7105263,543.631612 30.4946541,544.84903 28.9924812,544.84903 C27.4903083,544.84903 26.2744361,543.631612 26.2744361,542.131579 C26.2744361,540.631546 27.4903083,539.414127 28.9924812,539.414127 C30.4946541,539.414127 31.7105263,540.631546 31.7105263,542.131579" id="Fill-61" fill="#40B2FF"></path>
                <path d="M31.7105263,365.49723 L31.7105263,365.49723 C31.7105263,366.997263 30.4946541,368.214681 28.9924812,368.214681 C27.4903083,368.214681 26.2744361,366.997263 26.2744361,365.49723 C26.2744361,363.997197 27.4903083,362.779778 28.9924812,362.779778 C30.4946541,362.779778 31.7105263,363.997197 31.7105263,365.49723" id="Fill-62" fill="#40B2FF"></path>
                <path d="M321.635338,72.0124654 L321.635338,72.0124654 C321.635338,70.5106205 322.853023,69.2950139 324.353383,69.2950139 C325.853744,69.2950139 327.071429,70.5106205 327.071429,72.0124654 C327.071429,73.5143102 325.853744,74.7299169 324.353383,74.7299169 C322.853023,74.7299169 321.635338,73.5143102 321.635338,72.0124654" id="Fill-63" fill="#40B2FF"></path>
                <g id="Group-66" transform="translate(324.353383, 70.653740)">
                    <path d="M0,0.452908587 L0,96.4695291" id="Fill-64" fill="#FFFFFF"></path>
                    <path d="M0,0.452908587 L0,96.4695291" id="Stroke-65" stroke="#40B2FF"></path>
                </g>
                <path d="M321.635338,167.123269 L321.635338,167.123269 C321.635338,165.621424 322.853023,164.405817 324.353383,164.405817 C325.853744,164.405817 327.071429,165.621424 327.071429,167.123269 C327.071429,168.625114 325.853744,169.84072 324.353383,169.84072 C322.853023,169.84072 321.635338,168.625114 321.635338,167.123269" id="Fill-67" fill="#40B2FF"></path>
                <path d="M314.840226,178.445983 L314.840226,178.445983 C314.840226,176.944139 316.05791,175.728532 317.558271,175.728532 C319.058632,175.728532 320.276316,176.944139 320.276316,178.445983 C320.276316,179.947828 319.058632,181.163435 317.558271,181.163435 C316.05791,181.163435 314.840226,179.947828 314.840226,178.445983" id="Fill-68" fill="#40B2FF"></path>
                <g id="Group-71" transform="translate(298.984962, 85.146814)">
                    <path d="M0,0.452908587 L0,78.3531856" id="Fill-69" fill="#FFFFFF"></path>
                    <path d="M0,0.452908587 L0,78.3531856" id="Stroke-70" stroke="#40B2FF"></path>
                </g>
                <g id="Group-74" transform="translate(302.609023, 177.540166)">
                    <path d="M0.0424015038,20.855897 L14.9499729,0.906179501" id="Fill-72" fill="#FFFFFF"></path>
                    <path d="M0.0424015038,20.855897 L14.9499729,0.906179501" id="Stroke-73" stroke="#40B2FF"></path>
                </g>
                <path d="M284.035714,178.445983 L284.035714,178.445983 C284.035714,176.944139 285.253398,175.728532 286.753759,175.728532 C288.25412,175.728532 289.471805,176.944139 289.471805,178.445983 C289.471805,179.947828 288.25412,181.163435 286.753759,181.163435 C285.253398,181.163435 284.035714,179.947828 284.035714,178.445983" id="Fill-75" fill="#40B2FF"></path>
                <g id="Group-78" transform="translate(268.180451, 179.351801)">
                    <path d="M0.0424015038,22.6675313 L17.8619053,0.000362326869" id="Fill-76" fill="#FFFFFF"></path>
                    <path d="M0.0424015038,22.6675313 L17.8619053,0.000362326869" id="Stroke-77" stroke="#40B2FF"></path>
                </g>
                <path d="M109.886215,182.138275 L109.886215,182.138275 C108.402162,181.906386 107.389238,180.516863 107.621177,179.033134 C107.851305,177.551217 109.242944,176.536702 110.725185,176.768591 C112.209238,177.00048 113.222162,178.390004 112.990223,179.873732 C112.758283,181.355649 111.368456,182.370165 109.886215,182.138275" id="Fill-79" fill="#40B2FF"></path>
                <g id="Group-82" transform="translate(110.533835, 179.351801)">
                    <path d="M20.2039541,22.046503 L0.55792406,0.94458615" id="Fill-80" fill="#FFFFFF"></path>
                    <path d="M20.2039541,22.046503 L0.55792406,0.94458615" id="Stroke-81" stroke="#40B2FF"></path>
                </g>
                <polygon id="Fill-83" fill="#FFFFFF" points="296.266917 127.267313 301.703008 127.267313 301.703008 121.83241 296.266917 121.83241"></polygon>
                <path d="M295.360902,128.17313 L302.609023,128.17313 L302.609023,120.926593 L295.360902,120.926593 L295.360902,128.17313 Z M297.172932,126.361496 L300.796992,126.361496 L300.796992,122.738227 L297.172932,122.738227 L297.172932,126.361496 Z" id="Fill-84" fill="#40B2FF"></path>
                <polygon id="Fill-85" fill="#FFFFFF" points="303.06203 198.373961 308.49812 198.373961 308.49812 192.939058 303.06203 192.939058"></polygon>
                <path d="M302.156015,199.279778 L309.404135,199.279778 L309.404135,192.033241 L302.156015,192.033241 L302.156015,199.279778 Z M303.968045,197.468144 L307.592105,197.468144 L307.592105,193.844875 L303.968045,193.844875 L303.968045,197.468144 Z" id="Fill-86" fill="#40B2FF"></path>
                <polygon id="Fill-87" fill="#FFFFFF" points="339.302632 198.373961 344.738722 198.373961 344.738722 192.939058 339.302632 192.939058"></polygon>
                <path d="M338.396617,199.279778 L345.644737,199.279778 L345.644737,192.033241 L338.396617,192.033241 L338.396617,199.279778 Z M340.208647,197.468144 L343.832707,197.468144 L343.832707,193.844875 L340.208647,193.844875 L340.208647,197.468144 Z" id="Fill-88" fill="#40B2FF"></path>
                <polygon id="Fill-89" fill="#FFFFFF" points="339.302632 221.925208 344.738722 221.925208 344.738722 216.490305 339.302632 216.490305"></polygon>
                <path d="M338.396617,222.831025 L345.644737,222.831025 L345.644737,215.584488 L338.396617,215.584488 L338.396617,222.831025 Z M340.208647,221.019391 L343.832707,221.019391 L343.832707,217.396122 L340.208647,217.396122 L340.208647,221.019391 Z" id="Fill-90" fill="#40B2FF"></path>
                <polygon id="Fill-91" fill="#FFFFFF" points="275.881579 221.925208 281.317669 221.925208 281.317669 216.490305 275.881579 216.490305"></polygon>
                <path d="M274.975564,222.831025 L282.223684,222.831025 L282.223684,215.584488 L274.975564,215.584488 L274.975564,222.831025 Z M276.787594,221.019391 L280.411654,221.019391 L280.411654,217.396122 L276.787594,217.396122 L276.787594,221.019391 Z" id="Fill-92" fill="#40B2FF"></path>
                <polygon id="Fill-93" fill="#FFFFFF" points="266.821429 201.99723 272.257519 201.99723 272.257519 196.562327 266.821429 196.562327"></polygon>
                <path d="M265.915414,202.903047 L273.163534,202.903047 L273.163534,195.65651 L265.915414,195.65651 L265.915414,202.903047 Z M267.727444,201.091413 L271.351504,201.091413 L271.351504,197.468144 L267.727444,197.468144 L267.727444,201.091413 Z" id="Fill-94" fill="#40B2FF"></path>
                <path d="M296.266917,86.5055402 L296.266917,86.5055402 C296.266917,85.0036953 297.484602,83.7880886 298.984962,83.7880886 C300.485323,83.7880886 301.703008,85.0036953 301.703008,86.5055402 C301.703008,88.007385 300.485323,89.2229917 298.984962,89.2229917 C297.484602,89.2229917 296.266917,88.007385 296.266917,86.5055402" id="Fill-95" fill="#40B2FF"></path>
                <path d="M296.266917,163.5 L296.266917,163.5 C296.266917,161.998155 297.484602,160.782548 298.984962,160.782548 C300.485323,160.782548 301.703008,161.998155 301.703008,163.5 C301.703008,165.001845 300.485323,166.217452 298.984962,166.217452 C297.484602,166.217452 296.266917,165.001845 296.266917,163.5" id="Fill-96" fill="#40B2FF"></path>
                <polygon id="Fill-97" fill="#FFFFFF" points="321.635338 127.267313 327.071429 127.267313 327.071429 121.83241 321.635338 121.83241"></polygon>
                <path d="M320.729323,128.17313 L327.977444,128.17313 L327.977444,120.926593 L320.729323,120.926593 L320.729323,128.17313 Z M322.541353,126.361496 L326.165414,126.361496 L326.165414,122.738227 L322.541353,122.738227 L322.541353,126.361496 Z" id="Fill-98" fill="#40B2FF"></path>
                <polygon id="Fill-99" fill="#FFFFFF" points="125.483083 201.99723 130.919173 201.99723 130.919173 196.562327 125.483083 196.562327"></polygon>
                <path d="M124.577068,202.903047 L131.825188,202.903047 L131.825188,195.65651 L124.577068,195.65651 L124.577068,202.903047 Z M126.389098,201.091413 L130.013158,201.091413 L130.013158,197.468144 L126.389098,197.468144 L126.389098,201.091413 Z" id="Fill-100" fill="#40B2FF"></path>
                <path d="M89.9538842,196.63135 L89.9538842,196.63135 C88.4698316,196.399461 87.4569068,195.009937 87.6888466,193.526209 C87.9189744,192.044292 89.3106135,191.029777 90.7928541,191.261666 C92.2769068,191.493555 93.2898316,192.883079 93.0578917,194.366807 C92.8259519,195.848724 91.4361248,196.863239 89.9538842,196.63135" id="Fill-101" fill="#40B2FF"></path>
                <g id="Group-104" transform="translate(90.601504, 193.844875)">
                    <path d="M20.2039541,22.046503 L0.55792406,0.94458615" id="Fill-102" fill="#FFFFFF"></path>
                    <path d="M20.2039541,22.046503 L0.55792406,0.94458615" id="Stroke-103" stroke="#40B2FF"></path>
                </g>
                <path d="M50.6908165,296.349864 L50.6908165,296.349864 C50.1598917,297.752069 48.5906737,298.460418 47.1863504,297.929609 C45.7820271,297.396989 45.0753353,295.828114 45.6062602,294.425909 C46.138997,293.021892 47.708215,292.313543 49.1107263,292.846163 C50.5150496,293.376972 51.2217414,294.945848 50.6908165,296.349864" id="Fill-105" fill="#40B2FF"></path>
                <g id="Group-108" transform="translate(48.924812, 253.628809)">
                    <path d="M64.7686594,0.911976731 L0.21146391,41.1628687" id="Fill-106" fill="#FFFFFF"></path>
                    <path d="M64.7686594,0.911976731 L0.21146391,41.1628687" id="Stroke-107" stroke="#40B2FF"></path>
                </g>
                <path d="M391.84788,535.806801 L391.84788,535.806801 C392.587188,537.112989 392.126932,538.770635 390.822271,539.509782 C389.513985,540.248929 387.855977,539.788773 387.116669,538.484397 C386.377361,537.176397 386.835805,535.518751 388.14409,534.779604 C389.450564,534.040458 391.108571,534.498801 391.84788,535.806801" id="Fill-109" fill="#40B2FF"></path>
                <g id="Group-112" transform="translate(389.586466, 449.285319)">
                    <path d="M14.0272872,0.490047091 L0.0692195489,86.7202188" id="Fill-110" fill="#FFFFFF"></path>
                    <path d="M14.0272872,0.490047091 L0.0692195489,86.7202188" id="Stroke-111" stroke="#40B2FF"></path>
                </g>
                <path d="M417.216301,544.864973 L417.216301,544.864973 C417.955609,546.171161 417.495353,547.828807 416.190692,548.567953 C414.882406,549.3071 413.224398,548.846945 412.48509,547.542568 C411.745782,546.234568 412.204226,544.576923 413.512511,543.837776 C414.818985,543.098629 416.476992,543.556973 417.216301,544.864973" id="Fill-113" fill="#40B2FF"></path>
                <g id="Group-116" transform="translate(414.954887, 451.096953)">
                    <path d="M14.0272872,0.490047091 L0.0692195489,93.9667562" id="Fill-114" fill="#FFFFFF"></path>
                    <path d="M14.0272872,0.490047091 L0.0692195489,93.9667562" id="Stroke-115" stroke="#40B2FF"></path>
                </g>
                <path d="M72.4351774,309.03058 L72.4351774,309.03058 C71.9042526,310.434597 70.3350346,311.141134 68.9307113,310.610325 C67.526388,310.077705 66.8196962,308.510641 67.3506211,307.106624 C67.8833579,305.702608 69.4525759,304.99607 70.8550872,305.526879 C72.2594105,306.0595 72.9661023,307.628375 72.4351774,309.03058" id="Fill-117" fill="#40B2FF"></path>
                <g id="Group-120" transform="translate(70.669173, 273.556787)">
                    <path d="M57.5205391,0.911976731 L0.21146391,33.9163313" id="Fill-118" fill="#FFFFFF"></path>
                    <path d="M57.5205391,0.911976731 L0.21146391,33.9163313" id="Stroke-119" stroke="#40B2FF"></path>
                </g>
                <polygon id="Fill-121" fill="#FFFFFF" points="105.550752 216.490305 110.986842 216.490305 110.986842 211.055402 105.550752 211.055402"></polygon>
                <path d="M104.644737,217.396122 L111.892857,217.396122 L111.892857,210.149584 L104.644737,210.149584 L104.644737,217.396122 Z M106.456767,215.584488 L110.080827,215.584488 L110.080827,211.961219 L106.456767,211.961219 L106.456767,215.584488 Z" id="Fill-122" fill="#40B2FF"></path>
                <polygon id="Fill-123" fill="#FFFFFF" points="281.317669 355.98615 286.753759 355.98615 286.753759 350.551247 281.317669 350.551247"></polygon>
                <path d="M280.411654,356.891967 L287.659774,356.891967 L287.659774,349.645429 L280.411654,349.645429 L280.411654,356.891967 Z M282.223684,355.080332 L285.847744,355.080332 L285.847744,351.457064 L282.223684,351.457064 L282.223684,355.080332 Z" id="Fill-124" fill="#40B2FF"></path>
                <polygon id="Fill-125" fill="#FFFFFF" points="263.197368 374.102493 268.633459 374.102493 268.633459 368.66759 263.197368 368.66759"></polygon>
                <path d="M262.291353,375.00831 L269.539474,375.00831 L269.539474,367.761773 L262.291353,367.761773 L262.291353,375.00831 Z M264.103383,373.196676 L267.727444,373.196676 L267.727444,369.573407 L264.103383,369.573407 L264.103383,373.196676 Z" id="Fill-126" fill="#40B2FF"></path>
                <polygon id="Fill-127" fill="#FFFFFF" points="348.362782 428.451524 353.798872 428.451524 353.798872 423.01662 348.362782 423.01662"></polygon>
                <path d="M347.456767,429.357341 L354.704887,429.357341 L354.704887,422.110803 L347.456767,422.110803 L347.456767,429.357341 Z M349.268797,427.545706 L352.892857,427.545706 L352.892857,423.922438 L349.268797,423.922438 L349.268797,427.545706 Z" id="Fill-128" fill="#40B2FF"></path>
                <polygon id="Fill-129" fill="#FFFFFF" points="109.174812 258.157895 114.610902 258.157895 114.610902 252.722992 109.174812 252.722992"></polygon>
                <path d="M108.268797,259.063712 L115.516917,259.063712 L115.516917,251.817175 L108.268797,251.817175 L108.268797,259.063712 Z M110.080827,257.252078 L113.704887,257.252078 L113.704887,253.628809 L110.080827,253.628809 L110.080827,257.252078 Z" id="Fill-130" fill="#40B2FF"></path>
                <polygon id="Fill-131" fill="#FFFFFF" points="127.295113 276.274238 132.731203 276.274238 132.731203 270.839335 127.295113 270.839335"></polygon>
                <path d="M126.389098,277.180055 L133.637218,277.180055 L133.637218,269.933518 L126.389098,269.933518 L126.389098,277.180055 Z M128.201128,275.368421 L131.825188,275.368421 L131.825188,271.745152 L128.201128,271.745152 L128.201128,275.368421 Z" id="Fill-132" fill="#40B2FF"></path>
                <polygon id="Fill-133" fill="#FFFFFF" points="348.362782 453.814404 353.798872 453.814404 353.798872 448.379501 348.362782 448.379501"></polygon>
                <path d="M347.456767,454.720222 L354.704887,454.720222 L354.704887,447.473684 L347.456767,447.473684 L347.456767,454.720222 Z M349.268797,452.908587 L352.892857,452.908587 L352.892857,449.285319 L349.268797,449.285319 L349.268797,452.908587 Z" id="Fill-134" fill="#40B2FF"></path>
                <polygon id="Fill-135" fill="#FFFFFF" points="475.204887 428.451524 480.640977 428.451524 480.640977 423.01662 475.204887 423.01662"></polygon>
                <path d="M474.298872,429.357341 L481.546992,429.357341 L481.546992,422.110803 L474.298872,422.110803 L474.298872,429.357341 Z M476.110902,427.545706 L479.734962,427.545706 L479.734962,423.922438 L476.110902,423.922438 L476.110902,427.545706 Z" id="Fill-136" fill="#40B2FF"></path>
                <polygon id="Fill-137" fill="#FFFFFF" points="475.204887 453.814404 480.640977 453.814404 480.640977 448.379501 475.204887 448.379501"></polygon>
                <path d="M474.298872,454.720222 L481.546992,454.720222 L481.546992,447.473684 L474.298872,447.473684 L474.298872,454.720222 Z M476.110902,452.908587 L479.734962,452.908587 L479.734962,449.285319 L476.110902,449.285319 L476.110902,452.908587 Z" id="Fill-138" fill="#40B2FF"></path>
                <polygon id="Fill-139" fill="#FFFFFF" points="426.280075 453.814404 431.716165 453.814404 431.716165 448.379501 426.280075 448.379501"></polygon>
                <path d="M425.37406,454.720222 L432.62218,454.720222 L432.62218,447.473684 L425.37406,447.473684 L425.37406,454.720222 Z M427.18609,452.908587 L430.81015,452.908587 L430.81015,449.285319 L427.18609,449.285319 L427.18609,452.908587 Z" id="Fill-140" fill="#40B2FF"></path>
                <polygon id="Fill-141" fill="#FFFFFF" points="400.911654 453.814404 406.347744 453.814404 406.347744 448.379501 400.911654 448.379501"></polygon>
                <path d="M400.005639,454.720222 L407.253759,454.720222 L407.253759,447.473684 L400.005639,447.473684 L400.005639,454.720222 Z M401.817669,452.908587 L405.441729,452.908587 L405.441729,449.285319 L401.817669,449.285319 L401.817669,452.908587 Z" id="Fill-142" fill="#40B2FF"></path>
            </g>
        </g>
    </g>
</svg>