<?xml version="1.0" encoding="utf-8"?>
<!-- Generator: Adobe Illustrator 23.0.0, SVG Export Plug-In . SVG Version: 6.00 Build 0)  -->
<svg version="1.1" id="Layer_1" xmlns="http://www.w3.org/2000/svg" xmlns:xlink="http://www.w3.org/1999/xlink" x="0px" y="0px"
	 viewBox="0 0 259 259" style="enable-background:new 0 0 259 259;" xml:space="preserve">
<style type="text/css">
	.st0{fill:#FFFFFF;}
</style>
<title>Monogram</title>
<desc>Created with Sketch.</desc>
<g id="Page-1">
	<g id="Monogram">
		<path id="Shape" class="st0" d="M78.5,97.2c0.2-1.6-0.5-3.2-1.7-4.3L64.7,78.2V76h38l29.3,64.4L157.8,76H194v2.2l-10.5,10
			c-0.9,0.7-1.3,1.8-1.2,2.9v73.7c-0.2,1.1,0.3,2.2,1.2,2.9l10.2,10v2.2h-51.3v-2.2l10.6-10.2c1-1,1-1.3,1-2.9V105l-29.4,74.7h-4
			L86.4,105v50.1c-0.3,2.1,0.4,4.2,1.9,5.7l13.7,16.8v2.2H63v-2.2l13.8-16.7c1.5-1.5,2.1-3.7,1.8-5.7L78.5,97.2L78.5,97.2z"/>
	</g>
</g>
</svg>
