<?xml version="1.0" encoding="UTF-8"?>
<svg width="25px" height="24px" viewBox="0 0 25 24" version="1.1" xmlns="http://www.w3.org/2000/svg" xmlns:xlink="http://www.w3.org/1999/xlink">
    <!-- Generator: Sketch 51.3 (57544) - http://www.bohemiancoding.com/sketch -->
    <title>link</title>
    <desc>Created with Sketch.</desc>
    <defs></defs>
    <g id="Symbols" stroke="none" stroke-width="1" fill="none" fill-rule="evenodd">
        <g id="Button/Link" transform="translate(-23.000000, -24.000000)" fill="#FFFFFF">
            <path d="M45.5833333,35.1111111 L42.1944444,38.5 C42.3055561,37.2222158 42.1388911,35.9814875 41.6944444,34.7777778 L43.4722222,32.9722222 C44.1574108,32.2870336 44.5,31.4629678 44.5,30.5 C44.5,29.5370322 44.1574108,28.7129664 43.4722222,28.0277778 C42.7870336,27.3425892 41.9629678,27 41,27 C40.0370322,27 39.2129664,27.3425892 38.5277778,28.0277778 L34.7777778,31.75 C34.0925892,32.4351886 33.75,33.2592544 33.75,34.2222222 C33.75,35.18519 34.0925892,36.018515 34.7777778,36.7222222 C35.0740756,37.01852 35.2222222,37.3703683 35.2222222,37.7777778 C35.2222222,38.1851872 35.0740756,38.5370356 34.7777778,38.8333333 C34.48148,39.1296311 34.1296317,39.2777778 33.7222222,39.2777778 C33.3148128,39.2777778 32.9629644,39.1296311 32.6666667,38.8333333 C31.4074011,37.5555492 30.7777778,36.0185275 30.7777778,34.2222222 C30.7777778,32.4259169 31.4074011,30.8981544 32.6666667,29.6388889 L36.3888889,25.9166667 C37.6666731,24.6388825 39.2036947,24 41,24 C42.7963053,24 44.3240678,24.6388825 45.5833333,25.9166667 C46.8611175,27.1759322 47.5,28.7036947 47.5,30.5 C47.5,32.2963053 46.8611175,33.8333269 45.5833333,35.1111111 Z M38.3333333,42.3611111 L34.5833333,46.1111111 C33.3240678,47.3703767 31.7963053,48 30,48 C28.2036947,48 26.6666731,47.3703767 25.3888889,46.1111111 C24.1296233,44.8333269 23.5,43.2963053 23.5,41.5 C23.5,39.7036947 24.1296233,38.1759322 25.3888889,36.9166667 L28.8055556,33.5 C28.6944439,34.7963028 28.8611089,36.0462903 29.3055556,37.25 L27.5277778,39.0277778 C26.8425892,39.7129664 26.5,40.5370322 26.5,41.5 C26.5,42.4629678 26.8425892,43.2870336 27.5277778,43.9722222 C28.2129664,44.6574108 29.0370322,45 30,45 C30.9629678,45 31.7870336,44.6574108 32.4722222,43.9722222 L36.1944444,40.25 C36.8796331,39.5648114 37.2222222,38.7407456 37.2222222,37.7777778 C37.2222222,36.81481 36.8796331,35.9907442 36.1944444,35.3055556 C35.8981467,35.0092578 35.75,34.6527799 35.75,34.2361111 C35.75,33.8194424 35.8981467,33.4629644 36.1944444,33.1666667 C36.4907422,32.8703689 36.8472201,32.7222222 37.2638889,32.7222222 C37.6805576,32.7222222 38.0370356,32.8703689 38.3333333,33.1666667 C39.5925989,34.4444508 40.2222222,35.9814725 40.2222222,37.7777778 C40.2222222,39.5740831 39.5925989,41.1018456 38.3333333,42.3611111 Z" id="link"></path>
        </g>
    </g>
</svg>