<?xml version="1.0" encoding="utf-8"?>
<!-- Generator: Adobe Illustrator 23.0.4, SVG Export Plug-In . SVG Version: 6.00 Build 0)  -->
<svg version="1.1" id="Capa_1" xmlns="http://www.w3.org/2000/svg" xmlns:xlink="http://www.w3.org/1999/xlink" x="0px" y="0px"
	 viewBox="0 0 377.2 377.2" style="enable-background:new 0 0 377.2 377.2;" xml:space="preserve">
<style type="text/css">
	.st0{fill:#FFFFFF;}
	.st1{fill:#D13C33;}
</style>
<polygon class="st0" points="241.7,9 87,44.2 44.4,78.9 54.8,224.9 67.8,347.4 74.4,362.4 124.8,370.6 314.1,327.5 342.8,285.5 
	309.6,29.4 278.3,9 "/>
<g>
	<g>
		<path class="st1" d="M222.4,243.4c-6.8-6.2-15.2-11.1-23.6-15.1c-20.1-9.5-40.7-17.9-60.8-27.3C82,174.9,46.3,115.3,87,44.2
			L27.4,57.8C8.4,62.1-3.4,81,0.9,100l56.9,249.8c4.3,19,23.2,30.9,42.2,26.5l24.8-5.7c0-0.1,0-0.3,0-0.4
			c-16.4-7.3-31.8-14.1-48.3-21.5c9.7-23.1,19-45,28.7-68.2c6.2,3.7,10.6,6.4,15.1,9c26.4,14.7,54.3,21.6,84.5,16.5
			c14-2.3,26.1-7.4,30-22.9C238.8,267.4,234,253.9,222.4,243.4z"/>
		<path class="st1" d="M376.3,277.2L319.4,27.4c-4.3-19-23.2-30.9-42.2-26.5L241.6,9c0,0,0,0,0,0c17.3,5.6,32.3,10,46.6,15.8
			c3.8,1.5,12.7,5,12.7,5s-17.6,45.8-25.1,67.5c-28.2-22.6-54.9-28.7-85.7-24.1c-13.2,1.9-26.1,11-30,24.7c-4,14.4,1,25.7,13,33.4
			c8.8,5.7,18.3,10.6,27.9,14.7c18.8,8.2,38.3,14.9,56.9,23.5c45.8,21.2,69.5,56.7,65.4,107.9c-1.2,14.8-5.5,32.4-9.4,49.7
			c0.1,0.1,0.2,0.2,0.2,0.3l35.6-8.1C368.7,315.1,380.6,296.2,376.3,277.2z"/>
	</g>
</g>
</svg>
